<?xml version="1.0" standalone="no"?>
<!DOCTYPE svg PUBLIC "-//W3C//DTD SVG 20010904//EN"
 "http://www.w3.org/TR/2001/REC-SVG-20010904/DTD/svg10.dtd">
<svg version="1.0" xmlns="http://www.w3.org/2000/svg"
 width="1012.000000pt" height="1012.000000pt" viewBox="0 0 1012.000000 1012.000000"
 preserveAspectRatio="xMidYMid meet">
<metadata>
Created by potrace 1.11, written by Peter Selinger 2001-2013
</metadata>
<g transform="translate(0.000000,1012.000000) scale(0.100000,-0.100000)"
fill="#000000" stroke="none">
<path d="M4199 6700 c-13 -12 -93 -88 -179 -169 -85 -82 -175 -168 -200 -191
-25 -23 -108 -102 -185 -175 -77 -73 -154 -146 -170 -162 -17 -15 -105 -99
-196 -185 -91 -87 -179 -169 -195 -184 -16 -15 -100 -95 -188 -178 -87 -83
-175 -167 -196 -186 -20 -19 -106 -100 -190 -180 -84 -80 -176 -167 -204 -193
-131 -125 -203 -193 -355 -337 -90 -85 -182 -172 -205 -194 -23 -21 -77 -73
-121 -115 -44 -42 -161 -152 -260 -246 -98 -93 -215 -204 -260 -247 -44 -42
-98 -93 -120 -113 -94 -89 -342 -324 -391 -372 -38 -38 -52 -58 -49 -74 6 -32
25 -49 54 -49 14 0 539 171 1165 380 679 226 1144 376 1150 371 6 -4 146 -77
311 -161 165 -84 368 -188 450 -230 512 -264 706 -360 728 -360 25 0 32 7 832
825 193 197 456 465 585 597 l235 239 245 -242 c135 -133 512 -505 838 -828
545 -537 596 -586 627 -586 31 0 42 11 175 180 78 99 146 181 150 183 8 3 471
-111 1110 -275 184 -47 346 -87 359 -90 14 -2 28 -6 33 -9 11 -7 58 42 58 61
0 18 -28 48 -159 165 -52 47 -102 92 -111 100 -9 8 -56 51 -104 95 -49 44 -94
85 -100 90 -50 45 -220 198 -255 230 -25 22 -70 63 -101 91 -30 28 -75 68 -99
90 -25 21 -58 52 -75 68 -34 31 -147 133 -185 165 -13 11 -67 60 -120 108
-169 155 -205 188 -217 198 -47 42 -183 164 -200 180 -11 11 -40 38 -65 59
-24 21 -66 60 -94 85 -27 25 -90 82 -140 126 -49 44 -99 89 -111 100 -12 11
-59 54 -105 95 -126 113 -181 163 -204 185 -12 11 -55 49 -95 85 -40 36 -85
76 -100 90 -141 130 -161 144 -188 136 -11 -4 -163 -153 -338 -333 -366 -374
-421 -428 -433 -428 -5 0 -269 257 -586 570 -1226 1211 -1178 1165 -1206 1165
-14 0 -37 -9 -50 -20z m571 -630 c287 -283 673 -664 858 -847 l337 -332 -65
-64 c-36 -36 -202 -206 -370 -377 -168 -172 -372 -380 -453 -464 -82 -83 -272
-278 -423 -432 l-275 -281 -82 42 c-45 23 -194 99 -332 170 -137 70 -326 167
-420 215 -554 284 -642 327 -661 324 -18 -3 -476 -153 -524 -171 -8 -3 -19 -7
-25 -9 -16 -4 -919 -305 -935 -311 -8 -3 -19 -7 -25 -9 -5 -1 -130 -43 -278
-92 -147 -50 -267 -88 -267 -85 0 3 9 14 20 23 12 10 89 83 172 162 83 78 174
165 202 191 103 98 203 193 302 286 117 112 389 370 454 430 25 24 113 107
195 186 83 79 168 160 190 180 39 37 288 272 369 350 23 22 109 103 190 180
82 77 170 160 196 185 46 44 302 286 385 365 24 22 111 105 195 184 83 80 163
156 178 169 36 33 342 324 356 338 6 7 12 11 13 10 1 0 236 -233 523 -516z
m2118 -512 c108 -99 237 -215 282 -254 24 -21 54 -48 65 -59 11 -11 63 -58
115 -105 120 -107 147 -131 300 -270 69 -62 148 -134 176 -159 27 -25 90 -82
139 -126 50 -44 115 -103 145 -131 30 -28 107 -97 170 -154 63 -57 153 -138
200 -180 47 -42 157 -142 245 -221 88 -78 165 -148 171 -154 18 -17 185 -169
208 -188 12 -10 59 -53 106 -96 47 -43 101 -92 120 -109 33 -31 34 -32 10 -28
-14 2 -54 12 -90 21 -36 9 -72 18 -80 20 -19 4 -536 136 -845 216 -236 61
-291 70 -304 52 -47 -67 -275 -342 -280 -338 -21 22 -1248 1235 -1413 1397
-182 179 -199 199 -187 215 8 10 47 52 88 93 40 41 191 195 334 343 144 147
263 267 264 267 2 0 29 -24 61 -52z"/>
</g>
</svg>
