<?xml version="1.0" encoding="utf-8"?>
<!-- Generator: Adobe Illustrator 16.0.0, SVG Export Plug-In . SVG Version: 6.00 Build 0)  -->
<!DOCTYPE svg PUBLIC "-//W3C//DTD SVG 1.1//EN" "http://www.w3.org/Graphics/SVG/1.1/DTD/svg11.dtd">
<svg version="1.1" xmlns="http://www.w3.org/2000/svg" xmlns:xlink="http://www.w3.org/1999/xlink" x="0px" y="0px" width="1012px"
	 height="636px" viewBox="0 0 1012 636" enable-background="new 0 0 1012 636" xml:space="preserve">
<g id="Layer_1">
</g>
<g id="Layer_2">
	<g>
		<g>
			<path fill="#0D8899" d="M59.162,405.198c-1.893,0-3.704-0.98-4.721-2.674c-1.326-2.212-0.938-5.049,0.936-6.823L420.983,49.312
				c2.154-2.04,5.54-2.005,7.65,0.08L604.31,222.927l74.294-75.902c2.066-2.109,5.43-2.215,7.619-0.235l275.559,248.821
				c1.877,1.695,2.355,4.449,1.164,6.679s-3.756,3.355-6.201,2.739l-148.891-37.677l-28.098,35.742
				c-0.969,1.233-2.418,1.994-3.98,2.091c-1.561,0.111-3.096-0.475-4.211-1.577L604.442,238.524L442.918,403.543
				c-1.686,1.723-4.296,2.147-6.44,1.049l-147.63-75.616l-227.95,75.939C60.326,405.105,59.74,405.198,59.162,405.198z
				 M289.301,317.524c0.864,0,1.725,0.203,2.508,0.605l146.079,74.822l158.724-162.16L424.687,60.96L80.939,386.641l206.623-68.834
				C288.128,317.617,288.715,317.524,289.301,317.524z M612.138,230.66l162.776,160.791l26.498-33.709
				c1.344-1.709,3.568-2.461,5.674-1.934l130.871,33.117L682.771,158.499L612.138,230.66z"/>
		</g>
		<g>
			<g>
				<g>
					<g>
						<path fill="#FFFFFF" d="M911.438,535.702c-3.037,0-5.502-2.463-5.502-5.502v-43.4l-39.59-43.942
							c-2.035-2.258-1.854-5.736,0.404-7.771c2.26-2.035,5.738-1.853,7.771,0.405l41.004,45.512c0.91,1.01,1.414,2.322,1.414,3.683
							V530.2C916.939,533.239,914.477,535.702,911.438,535.702z"/>
					</g>
				</g>
				<g>
					<g>
						<path fill="#FFFFFF" d="M911.438,490.189c-1.313,0-2.629-0.466-3.68-1.414c-2.258-2.034-2.439-5.513-0.406-7.771
							l41.006-45.512c2.035-2.258,5.512-2.44,7.77-0.405c2.258,2.034,2.439,5.513,0.406,7.771l-41.006,45.512
							C914.441,489.576,912.941,490.189,911.438,490.189z"/>
					</g>
				</g>
			</g>
			<g>
				<g>
					<path fill="#FFFFFF" d="M411.524,537.86c-2.043,0-3.922-1.134-4.873-2.948l-26.364-50.293l-26.059,49.708
						c-0.96,1.83-2.79,2.98-4.931,2.948c-2.066-0.021-3.946-1.199-4.868-3.049l-43.191-86.684c-1.355-2.72-0.249-6.023,2.471-7.378
						c2.722-1.354,6.023-0.247,7.378,2.472l38.391,77.051l25.935-49.473c0.95-1.812,2.827-2.947,4.873-2.947l0,0
						c2.046,0,3.923,1.136,4.874,2.947l26.206,49.993l38.117-77.545c1.339-2.726,4.632-3.854,7.365-2.51
						c2.727,1.34,3.851,4.638,2.511,7.365l-42.897,87.269c-0.915,1.859-2.795,3.048-4.867,3.075
						C411.571,537.86,411.548,537.86,411.524,537.86z"/>
				</g>
			</g>
			<g>
				<g>
					<g>
						<path fill="#FFFFFF" d="M62.697,537.991c-0.873,0-1.757-0.208-2.58-0.646c-2.682-1.427-3.7-4.759-2.273-7.442l46.578-87.528
							c0.955-1.795,2.823-2.917,4.857-2.917s3.902,1.122,4.857,2.917l46.576,87.528c1.427,2.683,0.41,6.015-2.272,7.442
							c-2.681,1.427-6.015,0.409-7.441-2.273l-41.719-78.4l-41.72,78.4C66.569,536.932,64.665,537.991,62.697,537.991z"/>
					</g>
				</g>
				<g>
					<g>
						<circle fill="#FFFFFF" cx="109.278" cy="499.66" r="5.466"/>
					</g>
				</g>
			</g>
			<g>
				<g>
					<g>
						<path fill="#FFFFFF" d="M605.749,537.991c-0.873,0-1.757-0.208-2.58-0.646c-2.682-1.427-3.7-4.759-2.273-7.442l46.578-87.528
							c0.955-1.795,2.823-2.917,4.857-2.917s3.902,1.122,4.857,2.917l46.576,87.528c1.427,2.683,0.41,6.015-2.272,7.442
							c-2.68,1.427-6.014,0.409-7.442-2.273l-41.719-78.4l-41.72,78.4C609.62,536.932,607.716,537.991,605.749,537.991z"/>
					</g>
				</g>
				<g>
					<g>
						<circle fill="#FFFFFF" cx="652.33" cy="499.66" r="5.466"/>
					</g>
				</g>
			</g>
		</g>
	</g>
</g>
</svg>
